<svg xmlns="http://www.w3.org/2000/svg" viewBox="0 0 1200 760" role="img" aria-label="make life light illustration">
  <defs>
    <linearGradient id="sky" x1="0" x2="1" y1="0" y2="1"><stop offset="0" stop-color="#fffaf0"/><stop offset=".58" stop-color="#eef4e8"/><stop offset="1" stop-color="#d9e8df"/></linearGradient>
    <filter id="softShadow" x="-20%" y="-20%" width="140%" height="140%"><feDropShadow dx="0" dy="18" stdDeviation="18" flood-color="#302818" flood-opacity=".14"/></filter>
  </defs>
  <rect width="1200" height="760" fill="url(#sky)"/>
  <circle cx="970" cy="150" r="82" fill="#e5a84b" opacity=".28"/>
  <circle cx="225" cy="165" r="120" fill="#ffffff" opacity=".45"/>
  <path d="M0 610 C210 520 380 570 570 500 C760 430 930 455 1200 360 L1200 760 L0 760 Z" fill="#dfe9dd" opacity=".78"/>
  <path d="M200 480 C340 390 450 425 575 325 C690 232 830 250 1040 160" fill="none" stroke="#2f5a43" stroke-width="9" stroke-linecap="round" stroke-dasharray="22 18" opacity=".32"/>
  <g filter="url(#softShadow)">
    <path d="M635 165 C735 165 800 240 800 330 C800 430 710 500 635 500 C560 500 470 430 470 330 C470 240 535 165 635 165Z" fill="#e1a649" opacity=".82"/><path d="M635 500 C620 545 600 565 560 585" fill="none" stroke="#2f5a43" stroke-width="8"/><path d="M270 460 C380 410 420 480 520 430" fill="none" stroke="#8fb6c7" stroke-width="18" stroke-linecap="round"/>


  </g>
</svg>