<svg xmlns="http://www.w3.org/2000/svg" viewBox="0 0 1200 760" role="img" aria-label="the efficiency shift illustration">
  <defs>
    <linearGradient id="sky" x1="0" x2="1" y1="0" y2="1"><stop offset="0" stop-color="#fffaf0"/><stop offset=".58" stop-color="#eef4e8"/><stop offset="1" stop-color="#d9e8df"/></linearGradient>
    <filter id="softShadow" x="-20%" y="-20%" width="140%" height="140%"><feDropShadow dx="0" dy="18" stdDeviation="18" flood-color="#302818" flood-opacity=".14"/></filter>
  </defs>
  <rect width="1200" height="760" fill="url(#sky)"/>
  <circle cx="970" cy="150" r="82" fill="#e5a84b" opacity=".28"/>
  <circle cx="225" cy="165" r="120" fill="#ffffff" opacity=".45"/>
  <path d="M0 610 C210 520 380 570 570 500 C760 430 930 455 1200 360 L1200 760 L0 760 Z" fill="#dfe9dd" opacity=".78"/>
  <path d="M170 485 C315 420 430 420 545 330 C660 240 790 250 1030 175" fill="none" stroke="#2f5a43" stroke-width="9" stroke-linecap="round" stroke-dasharray="22 18" opacity=".32"/>
  <g filter="url(#softShadow)">
    <circle cx="500" cy="360" r="108" fill="none" stroke="#2f5a43" stroke-width="18"/><circle cx="500" cy="360" r="34" fill="#e1a649"/><path d="M650 360 C760 300 850 300 960 360" fill="none" stroke="#8fb6c7" stroke-width="24" stroke-linecap="round"/><path d="M930 325 l85 35 l-85 35" fill="#8fb6c7"/>


  </g>
</svg>