<svg xmlns="http://www.w3.org/2000/svg" viewBox="0 0 1200 760" role="img" aria-label="understanding the seeking mind illustration">
  <defs>
    <linearGradient id="sky" x1="0" x2="1" y1="0" y2="1"><stop offset="0" stop-color="#fffaf0"/><stop offset=".58" stop-color="#eef4e8"/><stop offset="1" stop-color="#d9e8df"/></linearGradient>
    <filter id="softShadow" x="-20%" y="-20%" width="140%" height="140%"><feDropShadow dx="0" dy="18" stdDeviation="18" flood-color="#302818" flood-opacity=".14"/></filter>
  </defs>
  <rect width="1200" height="760" fill="url(#sky)"/>
  <circle cx="970" cy="150" r="82" fill="#e5a84b" opacity=".28"/>
  <circle cx="225" cy="165" r="120" fill="#ffffff" opacity=".45"/>
  <path d="M0 610 C210 520 380 570 570 500 C760 430 930 455 1200 360 L1200 760 L0 760 Z" fill="#dfe9dd" opacity=".78"/>
  <path d="M170 475 C290 395 390 510 505 380 C610 260 715 410 830 275 C940 150 1000 220 1060 130" fill="none" stroke="#2f5a43" stroke-width="9" stroke-linecap="round" stroke-dasharray="22 18" opacity=".32"/>
  <g filter="url(#softShadow)">
    <path d="M300 180 h520 v360 h-520z M390 180 v250 h145 M535 300 h190 M725 180 v250 h95 M390 540 v-55 h260" fill="none" stroke="#2f5a43" stroke-width="16" stroke-linecap="round"/><circle cx="890" cy="255" r="64" fill="none" stroke="#e1a649" stroke-width="10"/><path d="M890 190 L918 255 L890 320 L862 255 Z" fill="#a66a3f"/>
<circle cx="900" cy="440" r="72" fill="none" stroke="#2f5a43" stroke-width="8"/><path d="M900 365 L930 440 L900 515 L870 440 Z" fill="#a66a3f" opacity=".85"/>

  </g>
</svg>